<svg xmlns="http://www.w3.org/2000/svg" width="21333.334" height="21333.334" viewBox="0 0 20 20">
  <path d="M13 2a2 2 0 0 1-2 2 2 2 0 0 1-2-2 2 2 0 0 1 2-2 2 2 0 0 1 2 2zM16 10.6c1.3 0 2.4 1.1 2.4 2.4 0 1.3-1.1 2.4-2.4 2.4-1.3 0-2.4-1.1-2.4-2.4 0-1.3 1.1-2.4 2.4-2.4M16 9c-2.2 0-4 1.8-4 4s1.8 4 4 4 4-1.8 4-4-1.8-4-4-4zM4 13.6c1.3 0 2.4 1.1 2.4 2.4 0 1.3-1.1 2.4-2.4 2.4-1.3 0-2.4-1.1-2.4-2.4 0-1.3 1.1-2.4 2.4-2.4M4 12c-2.2 0-4 1.8-4 4s1.8 4 4 4 4-1.8 4-4-1.8-4-4-4zM9.6 12.1l-.1-1.8-3-1.3 2.7-3.3 3 .3-3.6-2.7c-.6-.5-1.4-.4-1.8.2-1 1.1-2.5 2.9-3.3 3.9-.9 1.1-.5 2.8.9 3.2l5.2 1.5zM.8 6.8C.1 6.3.1 5.3.6 4.6L1.9 3c1-1.2 2.7-1.4 3.9-.4l.2.2-3 3.8c-.6.7-1.5.8-2.2.2z"/>
  <path d="M8.42 3.254L7.21 4.848l3.52 2.668 4.078.43.21-1.99-3.523-.37L8.42 3.254zM5.862 8.156l-.894 1.79L8.4 11.662l1.568 4.612 1.894-.645-1.832-5.39-4.168-2.084z" style="line-height:normal;text-indent:0;text-align:start;text-decoration-line:none;text-decoration-style:solid;text-decoration-color:#000000;text-transform:none;block-progression:tb;isolation:auto;mix-blend-mode:normal" color="#000" font-family="sans-serif" white-space="normal" overflow="visible" solid-color="#000000"/>
</svg>
