<svg xmlns="http://www.w3.org/2000/svg" width="15008.597" height="21333.334" viewBox="0 0 14.070559 20">
  <g transform="translate(-4.922 -2)">
    <circle r="2" cy="4" cx="13"/>
    <path d="M10.9 6.4l2.6 2-1.3 4.6 1.7 2.3-.8 1.7-3.2-2.6c-.6-.5-.9-1.3-.7-2.1l1.7-5.9zM9.2 22l1.8-5-1.6-1.4L7.1 22M6.2 12.7c-.9-.3-1.5-1.3-1.2-2.2l.6-2c.6-1.8 2.6-2.8 4.4-2.3l-1.6 5.3c-.3 1-1.2 1.5-2.2 1.2z"/>
  </g>
  <path d="M13.07 4.912v15h1v-15h-1zM6.83 10.26l-1.52 1.302 2.382 2.777c.255.32.38.695.38 1.072v4.5h2v-4.5c0-.823-.278-1.647-.82-2.325l-.012-.013-2.41-2.813z" style="line-height:normal;text-indent:0;text-align:start;text-decoration-line:none;text-decoration-style:solid;text-decoration-color:#000000;text-transform:none;block-progression:tb;isolation:auto;mix-blend-mode:normal" color="#000" font-family="sans-serif" white-space="normal" overflow="visible" solid-color="#000000"/>
  <path d="M6.09 4.382l-.587 1.912 1.325.408.027.006c.63.157 1.153.455 1.635.937l.8.8c.636.635 1.552.823 2.303.673l2.5-.5-.392-1.96-2.5.5c-.248.05-.33.037-.495-.128l-.8-.8c-.72-.717-1.594-1.22-2.566-1.462l.05.014-1.3-.4z" style="line-height:normal;text-indent:0;text-align:start;text-decoration-line:none;text-decoration-style:solid;text-decoration-color:#000000;text-transform:none;block-progression:tb;isolation:auto;mix-blend-mode:normal" color="#000" font-family="sans-serif" white-space="normal" overflow="visible" solid-color="#000000"/>
</svg>
