<svg xmlns="http://www.w3.org/2000/svg" width="21349.611" height="21333.337" viewBox="0 0 20.01526 20.000003">
  <g transform="translate(-173.23 -438.83)">
    <path d="M187.13 445.33l-3.6 2.9v4.3l-2.8-3.9c-.6-.8-.5-2 .3-2.7l4.5-3.8 1.7 1.2-.1 2z"/>
    <circle cx="-12.178" cy="4.379" r="2" transform="translate(201.408 436.45)"/>
    <path d="M177.43 457.73l1.7 1.1 3.9-4h-2.8M180.23 444.63l1.1-.8h-8.1v1h6.7c.1-.1.2-.1.3-.2zM178.73 447.83h-5.5v1h5.8c-.2-.3-.2-.7-.3-1zM179.13 445.83h-5.9v1h5.6c0-.4.2-.7.3-1z"/>
    <path d="M183.354 447.255l-1.818.836 1.69 3.677c.003.01-.003-.007 0 0 .037.066.05.006.02.006H176.243v2h7c1.366 0 2.372-1.5 1.818-2.793l-.004-.014-1.706-3.71zM182.423 439.654c-.43-.09-.905-.093-1.395.07l.06-.017-4.103 1.1.52 1.933 4.128-1.11.028-.008c.218-.072.5-.01.858.204l3.826 2.847c.25.188.375.37.42.594v.002l.2 1.1.006.02c.298 1.344 1.507 2.383 2.974 2.383h3.3v-2h-3.3c-.532 0-.92-.36-1.02-.815-.002 0-.003 0-.003-.002l-.193-1.07-.002-.01c-.155-.777-.63-1.39-1.18-1.803v-.002l-3.943-2.93-.043-.026c-.318-.19-.706-.37-1.137-.46z" style="line-height:normal;text-indent:0;text-align:start;text-decoration-line:none;text-decoration-style:solid;text-decoration-color:#000000;text-transform:none;block-progression:tb;isolation:auto;mix-blend-mode:normal" color="#000" font-family="sans-serif" white-space="normal" overflow="visible" solid-color="#000000"/>
  </g>
</svg>
